<svg width="1375" height="310" viewBox="0 0 1375 310" fill="none" xmlns="http://www.w3.org/2000/svg">
<path d="M195 99H291.5V195H413" stroke="#E0E0E0" stroke-width="2"/>
<path d="M965 99H1061.5V205H1183" stroke="#E0E0E0" stroke-width="2"/>
<path d="M581 194H677.5V99H799" stroke="#E0E0E0" stroke-width="2"/>
<g filter="url(#filter0_d_0_61)">
<path d="M16 43C16 20.9086 33.9086 3 56 3H201V145C201 167.091 183.091 185 161 185H16V43Z" fill="white"/>
</g>
<path d="M91.96 78.541C91.96 85.5723 90.4788 90.8213 87.5166 94.2881C84.5544 97.7549 80.0703 99.4883 74.0645 99.4883C71.9486 99.4883 70.3454 99.3743 69.2549 99.1465V93.0918C70.6221 93.4336 72.0544 93.6045 73.5518 93.6045C76.0745 93.6045 78.1497 93.2383 79.7773 92.5059C81.4049 91.7572 82.6501 90.5934 83.5127 89.0146C84.3753 87.4196 84.8717 85.2305 85.002 82.4473H84.709C83.765 83.9772 82.6745 85.0514 81.4375 85.6699C80.2005 86.2884 78.6543 86.5977 76.7988 86.5977C73.6901 86.5977 71.2406 85.6048 69.4502 83.6191C67.6598 81.6172 66.7646 78.8421 66.7646 75.2939C66.7646 71.4691 67.847 68.4499 70.0117 66.2363C72.1927 64.0065 75.1549 62.8916 78.8984 62.8916C81.5352 62.8916 83.8382 63.5101 85.8076 64.7471C87.7933 65.984 89.3151 67.7826 90.373 70.1426C91.431 72.4863 91.96 75.2858 91.96 78.541ZM79.0449 68.9463C77.4824 68.9463 76.2617 69.4834 75.3828 70.5576C74.5039 71.6318 74.0645 73.1781 74.0645 75.1963C74.0645 76.9215 74.4632 78.2887 75.2607 79.2979C76.0583 80.307 77.2708 80.8115 78.8984 80.8115C80.4284 80.8115 81.7386 80.3151 82.8291 79.3223C83.9196 78.3132 84.4648 77.1576 84.4648 75.8555C84.4648 73.9186 83.9521 72.2829 82.9268 70.9482C81.9176 69.6136 80.6237 68.9463 79.0449 68.9463ZM108.024 62.8428C111.442 62.8428 114.193 63.624 116.276 65.1865C118.376 66.7327 119.426 68.8242 119.426 71.4609C119.426 73.2839 118.921 74.9115 117.912 76.3438C116.903 77.7598 115.275 79.0293 113.029 80.1523C115.699 81.5846 117.611 83.082 118.767 84.6445C119.938 86.1908 120.524 87.8916 120.524 89.7471C120.524 92.6768 119.377 95.0368 117.082 96.8271C114.787 98.6012 111.768 99.4883 108.024 99.4883C104.118 99.4883 101.05 98.6582 98.8203 96.998C96.5905 95.3379 95.4756 92.986 95.4756 89.9424C95.4756 87.9079 96.0127 86.1012 97.0869 84.5225C98.1774 82.9437 99.9189 81.5521 102.312 80.3477C100.277 79.0618 98.8122 77.6865 97.917 76.2217C97.0218 74.7568 96.5742 73.1536 96.5742 71.4121C96.5742 68.8568 97.6322 66.7897 99.748 65.2109C101.864 63.6322 104.623 62.8428 108.024 62.8428ZM102.458 89.5029C102.458 90.9027 102.946 91.9932 103.923 92.7744C104.899 93.5557 106.234 93.9463 107.927 93.9463C109.799 93.9463 111.198 93.5475 112.126 92.75C113.054 91.9362 113.518 90.8701 113.518 89.5518C113.518 88.4613 113.054 87.444 112.126 86.5C111.215 85.5397 109.725 84.5225 107.658 83.4482C104.191 85.0433 102.458 87.0615 102.458 89.5029ZM107.976 68.3604C106.69 68.3604 105.648 68.694 104.851 69.3613C104.069 70.0124 103.679 70.8913 103.679 71.998C103.679 72.9746 103.988 73.8535 104.606 74.6348C105.241 75.3997 106.381 76.1891 108.024 77.0029C109.619 76.2542 110.734 75.4893 111.369 74.708C112.004 73.9268 112.321 73.0234 112.321 71.998C112.321 70.875 111.914 69.988 111.101 69.3369C110.287 68.6859 109.245 68.3604 107.976 68.3604ZM149.04 81.1533C149.04 87.387 148.015 92.0013 145.964 94.9961C143.929 97.9909 140.788 99.4883 136.54 99.4883C132.422 99.4883 129.313 97.9421 127.214 94.8496C125.131 91.7572 124.089 87.1917 124.089 81.1533C124.089 74.8545 125.106 70.2158 127.141 67.2373C129.175 64.2425 132.308 62.7451 136.54 62.7451C140.658 62.7451 143.767 64.3076 145.866 67.4326C147.982 70.5576 149.04 75.1312 149.04 81.1533ZM131.584 81.1533C131.584 85.5316 131.958 88.6729 132.707 90.5771C133.472 92.4652 134.75 93.4092 136.54 93.4092C138.298 93.4092 139.567 92.4489 140.349 90.5283C141.13 88.6077 141.521 85.4827 141.521 81.1533C141.521 76.7751 141.122 73.6338 140.324 71.7295C139.543 69.8089 138.282 68.8486 136.54 68.8486C134.766 68.8486 133.496 69.8089 132.731 71.7295C131.966 73.6338 131.584 76.7751 131.584 81.1533Z" fill="#212121"/>
<path d="M87.583 120.035C87.583 121.377 87.1436 122.405 86.2646 123.12C85.3857 123.835 84.1348 124.192 82.5117 124.192H81.1758V129H79.0752V116.15H82.7754C84.3809 116.15 85.582 116.479 86.3789 117.135C87.1816 117.791 87.583 118.758 87.583 120.035ZM81.1758 122.426H82.292C83.3701 122.426 84.1611 122.238 84.665 121.863C85.1689 121.488 85.4209 120.902 85.4209 120.105C85.4209 119.367 85.1953 118.816 84.7441 118.453C84.293 118.09 83.5898 117.908 82.6348 117.908H81.1758V122.426ZM94.8604 119.104C95.2764 119.104 95.6191 119.133 95.8887 119.191L95.6865 121.116C95.3936 121.046 95.0889 121.011 94.7725 121.011C93.9463 121.011 93.2754 121.28 92.7598 121.819C92.25 122.358 91.9951 123.059 91.9951 123.92V129H89.9297V119.279H91.5469L91.8193 120.993H91.9248C92.2471 120.413 92.666 119.953 93.1816 119.613C93.7031 119.273 94.2627 119.104 94.8604 119.104ZM106.321 124.122C106.321 125.71 105.914 126.949 105.1 127.84C104.285 128.73 103.151 129.176 101.698 129.176C100.79 129.176 99.9873 128.971 99.29 128.561C98.5928 128.15 98.0566 127.562 97.6816 126.794C97.3066 126.026 97.1191 125.136 97.1191 124.122C97.1191 122.546 97.5234 121.315 98.332 120.431C99.1406 119.546 100.28 119.104 101.751 119.104C103.157 119.104 104.271 119.558 105.091 120.466C105.911 121.368 106.321 122.587 106.321 124.122ZM99.2461 124.122C99.2461 126.366 100.075 127.488 101.733 127.488C103.374 127.488 104.194 126.366 104.194 124.122C104.194 121.901 103.368 120.791 101.716 120.791C100.849 120.791 100.219 121.078 99.8262 121.652C99.4395 122.227 99.2461 123.05 99.2461 124.122ZM107.71 133.324C107.089 133.324 106.573 133.251 106.163 133.104V131.47C106.562 131.575 106.969 131.628 107.385 131.628C108.264 131.628 108.703 131.13 108.703 130.134V119.279H110.769V130.274C110.769 131.276 110.505 132.035 109.978 132.551C109.456 133.066 108.7 133.324 107.71 133.324ZM108.58 116.704C108.58 116.335 108.68 116.051 108.879 115.852C109.084 115.652 109.374 115.553 109.749 115.553C110.112 115.553 110.394 115.652 110.593 115.852C110.798 116.051 110.9 116.335 110.9 116.704C110.9 117.056 110.798 117.334 110.593 117.539C110.394 117.738 110.112 117.838 109.749 117.838C109.374 117.838 109.084 117.738 108.879 117.539C108.68 117.334 108.58 117.056 108.58 116.704ZM117.976 129.176C116.464 129.176 115.28 128.736 114.425 127.857C113.575 126.973 113.15 125.757 113.15 124.21C113.15 122.622 113.546 121.374 114.337 120.466C115.128 119.558 116.215 119.104 117.598 119.104C118.881 119.104 119.895 119.493 120.639 120.272C121.383 121.052 121.755 122.124 121.755 123.489V124.605H115.277C115.307 125.549 115.562 126.275 116.042 126.785C116.522 127.289 117.199 127.541 118.072 127.541C118.646 127.541 119.18 127.488 119.672 127.383C120.17 127.271 120.703 127.09 121.271 126.838V128.517C120.768 128.757 120.258 128.927 119.742 129.026C119.227 129.126 118.638 129.176 117.976 129.176ZM117.598 120.668C116.941 120.668 116.414 120.876 116.016 121.292C115.623 121.708 115.389 122.314 115.312 123.111H119.725C119.713 122.309 119.52 121.702 119.145 121.292C118.77 120.876 118.254 120.668 117.598 120.668ZM128.021 129.176C126.551 129.176 125.432 128.748 124.664 127.893C123.902 127.031 123.521 125.798 123.521 124.192C123.521 122.558 123.92 121.301 124.717 120.422C125.52 119.543 126.677 119.104 128.188 119.104C129.214 119.104 130.137 119.294 130.957 119.675L130.333 121.336C129.46 120.996 128.739 120.826 128.171 120.826C126.489 120.826 125.648 121.942 125.648 124.175C125.648 125.265 125.856 126.085 126.272 126.636C126.694 127.181 127.31 127.453 128.118 127.453C129.038 127.453 129.908 127.225 130.729 126.768V128.569C130.359 128.786 129.964 128.941 129.542 129.035C129.126 129.129 128.619 129.176 128.021 129.176ZM136.635 127.506C137.139 127.506 137.643 127.427 138.146 127.269V128.824C137.918 128.924 137.622 129.006 137.259 129.07C136.901 129.141 136.529 129.176 136.143 129.176C134.186 129.176 133.207 128.145 133.207 126.082V120.844H131.88V119.93L133.304 119.174L134.007 117.117H135.281V119.279H138.05V120.844H135.281V126.047C135.281 126.545 135.404 126.914 135.65 127.154C135.902 127.389 136.23 127.506 136.635 127.506Z" fill="#646464"/>
<g filter="url(#filter1_d_0_61)">
<path d="M402 139C402 116.909 419.909 99 442 99H587V241C587 263.091 569.091 281 547 281H402V139Z" fill="white"/>
</g>
<path d="M467.144 172.197C470.594 172.197 473.337 173.166 475.371 175.103C477.422 177.039 478.447 179.692 478.447 183.062C478.447 187.049 477.218 190.117 474.761 192.266C472.303 194.414 468.787 195.488 464.214 195.488C460.243 195.488 457.036 194.845 454.595 193.56V187.041C455.881 187.725 457.378 188.286 459.087 188.726C460.796 189.149 462.415 189.36 463.945 189.36C468.551 189.36 470.854 187.472 470.854 183.696C470.854 180.099 468.47 178.301 463.701 178.301C462.839 178.301 461.886 178.39 460.845 178.569C459.803 178.732 458.957 178.911 458.306 179.106L455.303 177.495L456.646 159.307H476.006V165.703H463.262L462.603 172.71L463.457 172.539C464.45 172.311 465.679 172.197 467.144 172.197ZM507.671 195H482.72V189.751L491.68 180.693C494.333 177.975 496.066 176.095 496.88 175.054C497.694 173.996 498.28 173.019 498.638 172.124C498.996 171.229 499.175 170.301 499.175 169.341C499.175 167.909 498.776 166.842 497.979 166.143C497.197 165.443 496.147 165.093 494.829 165.093C493.446 165.093 492.103 165.41 490.801 166.045C489.499 166.68 488.14 167.583 486.724 168.755L482.622 163.896C484.38 162.399 485.837 161.341 486.992 160.723C488.148 160.104 489.409 159.632 490.776 159.307C492.144 158.965 493.674 158.794 495.366 158.794C497.596 158.794 499.565 159.201 501.274 160.015C502.983 160.828 504.31 161.968 505.254 163.433C506.198 164.897 506.67 166.574 506.67 168.462C506.67 170.106 506.377 171.652 505.791 173.101C505.221 174.533 504.326 176.006 503.105 177.52C501.901 179.033 499.769 181.19 496.709 183.989L492.119 188.311V188.652H507.671V195ZM536.04 177.153C536.04 183.387 535.015 188.001 532.964 190.996C530.929 193.991 527.788 195.488 523.54 195.488C519.422 195.488 516.313 193.942 514.214 190.85C512.131 187.757 511.089 183.192 511.089 177.153C511.089 170.854 512.106 166.216 514.141 163.237C516.175 160.243 519.308 158.745 523.54 158.745C527.658 158.745 530.767 160.308 532.866 163.433C534.982 166.558 536.04 171.131 536.04 177.153ZM518.584 177.153C518.584 181.532 518.958 184.673 519.707 186.577C520.472 188.465 521.75 189.409 523.54 189.409C525.298 189.409 526.567 188.449 527.349 186.528C528.13 184.608 528.521 181.483 528.521 177.153C528.521 172.775 528.122 169.634 527.324 167.729C526.543 165.809 525.282 164.849 523.54 164.849C521.766 164.849 520.496 165.809 519.731 167.729C518.966 169.634 518.584 172.775 518.584 177.153Z" fill="#212121"/>
<path d="M451.301 225H449.191V219.208H443.268V225H441.167V212.15H443.268V217.406H449.191V212.15H451.301V225ZM460.547 225L460.134 223.646H460.063C459.595 224.238 459.123 224.643 458.648 224.859C458.174 225.07 457.564 225.176 456.82 225.176C455.865 225.176 455.118 224.918 454.579 224.402C454.046 223.887 453.779 223.157 453.779 222.214C453.779 221.212 454.151 220.456 454.896 219.946C455.64 219.437 456.773 219.158 458.297 219.111L459.976 219.059V218.54C459.976 217.919 459.829 217.456 459.536 217.151C459.249 216.841 458.801 216.686 458.191 216.686C457.693 216.686 457.216 216.759 456.759 216.905C456.302 217.052 455.862 217.225 455.44 217.424L454.772 215.947C455.3 215.672 455.877 215.464 456.504 215.323C457.131 215.177 457.723 215.104 458.279 215.104C459.516 215.104 460.447 215.373 461.074 215.912C461.707 216.451 462.023 217.298 462.023 218.452V225H460.547ZM457.471 223.594C458.221 223.594 458.821 223.386 459.272 222.97C459.729 222.548 459.958 221.959 459.958 221.203V220.359L458.71 220.412C457.737 220.447 457.028 220.611 456.583 220.904C456.144 221.191 455.924 221.634 455.924 222.231C455.924 222.665 456.053 223.002 456.311 223.242C456.568 223.477 456.955 223.594 457.471 223.594ZM469.837 225.176C468.606 225.176 467.651 224.733 466.972 223.849H466.849C466.931 224.669 466.972 225.167 466.972 225.343V229.324H464.906V215.279H466.576C466.623 215.461 466.72 215.895 466.866 216.58H466.972C467.616 215.596 468.583 215.104 469.872 215.104C471.085 215.104 472.028 215.543 472.702 216.422C473.382 217.301 473.722 218.534 473.722 220.122C473.722 221.71 473.376 222.949 472.685 223.84C471.999 224.73 471.05 225.176 469.837 225.176ZM469.336 216.791C468.516 216.791 467.915 217.031 467.534 217.512C467.159 217.992 466.972 218.76 466.972 219.814V220.122C466.972 221.306 467.159 222.164 467.534 222.697C467.909 223.225 468.521 223.488 469.371 223.488C470.086 223.488 470.637 223.195 471.023 222.609C471.41 222.023 471.604 221.188 471.604 220.104C471.604 219.015 471.41 218.191 471.023 217.635C470.643 217.072 470.08 216.791 469.336 216.791ZM481.052 225.176C479.821 225.176 478.866 224.733 478.187 223.849H478.063C478.146 224.669 478.187 225.167 478.187 225.343V229.324H476.121V215.279H477.791C477.838 215.461 477.935 215.895 478.081 216.58H478.187C478.831 215.596 479.798 215.104 481.087 215.104C482.3 215.104 483.243 215.543 483.917 216.422C484.597 217.301 484.937 218.534 484.937 220.122C484.937 221.71 484.591 222.949 483.899 223.84C483.214 224.73 482.265 225.176 481.052 225.176ZM480.551 216.791C479.73 216.791 479.13 217.031 478.749 217.512C478.374 217.992 478.187 218.76 478.187 219.814V220.122C478.187 221.306 478.374 222.164 478.749 222.697C479.124 223.225 479.736 223.488 480.586 223.488C481.301 223.488 481.852 223.195 482.238 222.609C482.625 222.023 482.818 221.188 482.818 220.104C482.818 219.015 482.625 218.191 482.238 217.635C481.857 217.072 481.295 216.791 480.551 216.791ZM485.859 215.279H488.109L490.087 220.79C490.386 221.575 490.585 222.313 490.685 223.005H490.755C490.808 222.683 490.904 222.293 491.045 221.836C491.186 221.373 491.93 219.188 493.277 215.279H495.51L491.353 226.292C490.597 228.313 489.337 229.324 487.573 229.324C487.116 229.324 486.671 229.274 486.237 229.175V227.54C486.548 227.61 486.902 227.646 487.301 227.646C488.297 227.646 488.997 227.068 489.401 225.914L489.762 225L485.859 215.279ZM507.349 213.768C506.142 213.768 505.192 214.195 504.501 215.051C503.81 215.906 503.464 217.087 503.464 218.593C503.464 220.169 503.795 221.361 504.457 222.17C505.125 222.979 506.089 223.383 507.349 223.383C507.894 223.383 508.421 223.33 508.931 223.225C509.44 223.113 509.971 222.973 510.521 222.803V224.604C509.514 224.985 508.371 225.176 507.094 225.176C505.213 225.176 503.769 224.607 502.761 223.471C501.753 222.328 501.249 220.696 501.249 218.575C501.249 217.239 501.492 216.07 501.979 215.068C502.471 214.066 503.18 213.299 504.105 212.766C505.031 212.232 506.118 211.966 507.366 211.966C508.679 211.966 509.892 212.241 511.005 212.792L510.249 214.541C509.815 214.336 509.355 214.157 508.869 214.005C508.389 213.847 507.882 213.768 507.349 213.768ZM515.136 225H513.07V211.324H515.136V225ZM520.163 225H518.098V215.279H520.163V225ZM517.975 212.704C517.975 212.335 518.074 212.051 518.273 211.852C518.479 211.652 518.769 211.553 519.144 211.553C519.507 211.553 519.788 211.652 519.987 211.852C520.192 212.051 520.295 212.335 520.295 212.704C520.295 213.056 520.192 213.334 519.987 213.539C519.788 213.738 519.507 213.838 519.144 213.838C518.769 213.838 518.479 213.738 518.273 213.539C518.074 213.334 517.975 213.056 517.975 212.704ZM527.37 225.176C525.858 225.176 524.675 224.736 523.819 223.857C522.97 222.973 522.545 221.757 522.545 220.21C522.545 218.622 522.94 217.374 523.731 216.466C524.522 215.558 525.609 215.104 526.992 215.104C528.275 215.104 529.289 215.493 530.033 216.272C530.777 217.052 531.149 218.124 531.149 219.489V220.605H524.672C524.701 221.549 524.956 222.275 525.437 222.785C525.917 223.289 526.594 223.541 527.467 223.541C528.041 223.541 528.574 223.488 529.066 223.383C529.564 223.271 530.098 223.09 530.666 222.838V224.517C530.162 224.757 529.652 224.927 529.137 225.026C528.621 225.126 528.032 225.176 527.37 225.176ZM526.992 216.668C526.336 216.668 525.809 216.876 525.41 217.292C525.018 217.708 524.783 218.314 524.707 219.111H529.119C529.107 218.309 528.914 217.702 528.539 217.292C528.164 216.876 527.648 216.668 526.992 216.668ZM542.048 225H539.974V219.023C539.974 218.273 539.821 217.714 539.517 217.345C539.218 216.976 538.74 216.791 538.084 216.791C537.211 216.791 536.572 217.049 536.168 217.564C535.764 218.08 535.562 218.944 535.562 220.157V225H533.496V215.279H535.113L535.403 216.554H535.509C535.802 216.091 536.218 215.733 536.757 215.481C537.296 215.229 537.894 215.104 538.55 215.104C540.882 215.104 542.048 216.29 542.048 218.663V225ZM548.543 223.506C549.047 223.506 549.551 223.427 550.055 223.269V224.824C549.826 224.924 549.53 225.006 549.167 225.07C548.81 225.141 548.438 225.176 548.051 225.176C546.094 225.176 545.115 224.145 545.115 222.082V216.844H543.788V215.93L545.212 215.174L545.915 213.117H547.189V215.279H549.958V216.844H547.189V222.047C547.189 222.545 547.312 222.914 547.559 223.154C547.811 223.389 548.139 223.506 548.543 223.506Z" fill="#646464"/>
<g filter="url(#filter2_d_0_61)">
<path d="M788 43C788 20.9086 805.909 3 828 3H973V145C973 167.091 955.091 185 933 185H788V43Z" fill="white"/>
</g>
<path d="M863.715 71.29C863.715 73.5199 863.039 75.416 861.688 76.9785C860.338 78.541 858.441 79.6152 856 80.2012V80.3477C858.881 80.7057 861.062 81.5846 862.543 82.9844C864.024 84.3678 864.765 86.2396 864.765 88.5996C864.765 92.0339 863.52 94.7113 861.029 96.6318C858.539 98.5361 854.983 99.4883 850.36 99.4883C846.487 99.4883 843.052 98.8454 840.058 97.5596V91.1387C841.441 91.8385 842.963 92.4082 844.623 92.8477C846.283 93.2871 847.927 93.5068 849.555 93.5068C852.045 93.5068 853.884 93.0837 855.072 92.2373C856.26 91.391 856.854 90.0319 856.854 88.1602C856.854 86.4837 856.171 85.2956 854.804 84.5957C853.437 83.8958 851.256 83.5459 848.261 83.5459H845.551V77.7598H848.31C851.076 77.7598 853.095 77.4017 854.364 76.6855C855.65 75.9531 856.293 74.708 856.293 72.9502C856.293 70.2484 854.6 68.8975 851.215 68.8975C850.043 68.8975 848.847 69.0928 847.626 69.4834C846.422 69.874 845.079 70.5495 843.598 71.5098L840.106 66.3096C843.362 63.9658 847.243 62.7939 851.752 62.7939C855.447 62.7939 858.36 63.5426 860.492 65.04C862.641 66.5374 863.715 68.6208 863.715 71.29ZM892.279 71.29C892.279 73.5199 891.604 75.416 890.253 76.9785C888.902 78.541 887.006 79.6152 884.564 80.2012V80.3477C887.445 80.7057 889.626 81.5846 891.107 82.9844C892.589 84.3678 893.329 86.2396 893.329 88.5996C893.329 92.0339 892.084 94.7113 889.594 96.6318C887.104 98.5361 883.547 99.4883 878.925 99.4883C875.051 99.4883 871.617 98.8454 868.622 97.5596V91.1387C870.006 91.8385 871.527 92.4082 873.188 92.8477C874.848 93.2871 876.492 93.5068 878.119 93.5068C880.609 93.5068 882.449 93.0837 883.637 92.2373C884.825 91.391 885.419 90.0319 885.419 88.1602C885.419 86.4837 884.735 85.2956 883.368 84.5957C882.001 83.8958 879.82 83.5459 876.825 83.5459H874.115V77.7598H876.874C879.641 77.7598 881.659 77.4017 882.929 76.6855C884.215 75.9531 884.857 74.708 884.857 72.9502C884.857 70.2484 883.165 68.8975 879.779 68.8975C878.607 68.8975 877.411 69.0928 876.19 69.4834C874.986 69.874 873.643 70.5495 872.162 71.5098L868.671 66.3096C871.926 63.9658 875.808 62.7939 880.316 62.7939C884.011 62.7939 886.924 63.5426 889.057 65.04C891.205 66.5374 892.279 68.6208 892.279 71.29ZM922.04 81.1533C922.04 87.387 921.015 92.0013 918.964 94.9961C916.929 97.9909 913.788 99.4883 909.54 99.4883C905.422 99.4883 902.313 97.9421 900.214 94.8496C898.131 91.7572 897.089 87.1917 897.089 81.1533C897.089 74.8545 898.106 70.2158 900.141 67.2373C902.175 64.2425 905.308 62.7451 909.54 62.7451C913.658 62.7451 916.767 64.3076 918.866 67.4326C920.982 70.5576 922.04 75.1312 922.04 81.1533ZM904.584 81.1533C904.584 85.5316 904.958 88.6729 905.707 90.5771C906.472 92.4652 907.75 93.4092 909.54 93.4092C911.298 93.4092 912.567 92.4489 913.349 90.5283C914.13 88.6077 914.521 85.4827 914.521 81.1533C914.521 76.7751 914.122 73.6338 913.324 71.7295C912.543 69.8089 911.282 68.8486 909.54 68.8486C907.766 68.8486 906.496 69.8089 905.731 71.7295C904.966 73.6338 904.584 76.7751 904.584 81.1533Z" fill="#212121"/>
<path d="M858.641 129H856.355L854.176 121.336C854.082 121.002 853.965 120.521 853.824 119.895C853.684 119.262 853.599 118.822 853.569 118.576C853.511 118.951 853.414 119.438 853.279 120.035C853.15 120.633 853.042 121.078 852.954 121.371L850.827 129H848.542L846.881 122.566L845.193 116.15H847.338L849.175 123.639C849.462 124.84 849.667 125.9 849.79 126.82C849.854 126.322 849.951 125.766 850.08 125.15C850.209 124.535 850.326 124.037 850.432 123.656L852.523 116.15H854.606L856.751 123.691C856.956 124.389 857.173 125.432 857.401 126.82C857.489 125.982 857.7 124.916 858.034 123.621L859.862 116.15H861.989L858.641 129ZM865.663 129H863.598V119.279H865.663V129ZM863.475 116.704C863.475 116.335 863.574 116.051 863.773 115.852C863.979 115.652 864.269 115.553 864.644 115.553C865.007 115.553 865.288 115.652 865.487 115.852C865.692 116.051 865.795 116.335 865.795 116.704C865.795 117.056 865.692 117.334 865.487 117.539C865.288 117.738 865.007 117.838 864.644 117.838C864.269 117.838 863.979 117.738 863.773 117.539C863.574 117.334 863.475 117.056 863.475 116.704ZM877.177 129H875.103V123.023C875.103 122.273 874.95 121.714 874.646 121.345C874.347 120.976 873.869 120.791 873.213 120.791C872.34 120.791 871.701 121.049 871.297 121.564C870.893 122.08 870.69 122.944 870.69 124.157V129H868.625V119.279H870.242L870.532 120.554H870.638C870.931 120.091 871.347 119.733 871.886 119.481C872.425 119.229 873.022 119.104 873.679 119.104C876.011 119.104 877.177 120.29 877.177 122.663V129ZM888.603 129H886.528V123.023C886.528 122.273 886.376 121.714 886.071 121.345C885.772 120.976 885.295 120.791 884.639 120.791C883.766 120.791 883.127 121.049 882.723 121.564C882.318 122.08 882.116 122.944 882.116 124.157V129H880.051V119.279H881.668L881.958 120.554H882.063C882.356 120.091 882.772 119.733 883.312 119.481C883.851 119.229 884.448 119.104 885.104 119.104C887.437 119.104 888.603 120.29 888.603 122.663V129ZM895.722 129.176C894.21 129.176 893.026 128.736 892.171 127.857C891.321 126.973 890.896 125.757 890.896 124.21C890.896 122.622 891.292 121.374 892.083 120.466C892.874 119.558 893.961 119.104 895.344 119.104C896.627 119.104 897.641 119.493 898.385 120.272C899.129 121.052 899.501 122.124 899.501 123.489V124.605H893.023C893.053 125.549 893.308 126.275 893.788 126.785C894.269 127.289 894.945 127.541 895.818 127.541C896.393 127.541 896.926 127.488 897.418 127.383C897.916 127.271 898.449 127.09 899.018 126.838V128.517C898.514 128.757 898.004 128.927 897.488 129.026C896.973 129.126 896.384 129.176 895.722 129.176ZM895.344 120.668C894.688 120.668 894.16 120.876 893.762 121.292C893.369 121.708 893.135 122.314 893.059 123.111H897.471C897.459 122.309 897.266 121.702 896.891 121.292C896.516 120.876 896 120.668 895.344 120.668ZM906.778 119.104C907.194 119.104 907.537 119.133 907.807 119.191L907.604 121.116C907.312 121.046 907.007 121.011 906.69 121.011C905.864 121.011 905.193 121.28 904.678 121.819C904.168 122.358 903.913 123.059 903.913 123.92V129H901.848V119.279H903.465L903.737 120.993H903.843C904.165 120.413 904.584 119.953 905.1 119.613C905.621 119.273 906.181 119.104 906.778 119.104ZM916.147 126.231C916.147 127.181 915.802 127.91 915.11 128.42C914.419 128.924 913.429 129.176 912.14 129.176C910.845 129.176 909.805 128.979 909.02 128.587V126.803C910.162 127.33 911.226 127.594 912.21 127.594C913.481 127.594 914.117 127.21 914.117 126.442C914.117 126.196 914.047 125.991 913.906 125.827C913.766 125.663 913.534 125.493 913.212 125.317C912.89 125.142 912.441 124.942 911.867 124.72C910.748 124.286 909.989 123.853 909.591 123.419C909.198 122.985 909.002 122.423 909.002 121.731C909.002 120.899 909.336 120.255 910.004 119.798C910.678 119.335 911.592 119.104 912.746 119.104C913.889 119.104 914.97 119.335 915.989 119.798L915.321 121.354C914.272 120.92 913.391 120.703 912.676 120.703C911.586 120.703 911.041 121.014 911.041 121.635C911.041 121.939 911.182 122.197 911.463 122.408C911.75 122.619 912.371 122.909 913.326 123.278C914.129 123.589 914.712 123.873 915.075 124.131C915.438 124.389 915.708 124.688 915.884 125.027C916.06 125.361 916.147 125.763 916.147 126.231Z" fill="#646464"/>
<g filter="url(#filter3_d_0_61)">
<path d="M1174 139C1174 116.909 1191.91 99 1214 99H1359V241C1359 263.091 1341.09 281 1319 281H1174V139Z" fill="white"/>
</g>
<path d="M1243.81 195H1236.26V174.346L1236.34 170.952L1236.46 167.241C1235.21 168.494 1234.33 169.316 1233.85 169.707L1229.75 173.003L1226.11 168.462L1237.61 159.307H1243.81V195ZM1278.67 195H1253.72V189.751L1262.68 180.693C1265.33 177.975 1267.07 176.095 1267.88 175.054C1268.69 173.996 1269.28 173.019 1269.64 172.124C1270 171.229 1270.17 170.301 1270.17 169.341C1270.17 167.909 1269.78 166.842 1268.98 166.143C1268.2 165.443 1267.15 165.093 1265.83 165.093C1264.45 165.093 1263.1 165.41 1261.8 166.045C1260.5 166.68 1259.14 167.583 1257.72 168.755L1253.62 163.896C1255.38 162.399 1256.84 161.341 1257.99 160.723C1259.15 160.104 1260.41 159.632 1261.78 159.307C1263.14 158.965 1264.67 158.794 1266.37 158.794C1268.6 158.794 1270.57 159.201 1272.27 160.015C1273.98 160.828 1275.31 161.968 1276.25 163.433C1277.2 164.897 1277.67 166.574 1277.67 168.462C1277.67 170.106 1277.38 171.652 1276.79 173.101C1276.22 174.533 1275.33 176.006 1274.11 177.52C1272.9 179.033 1270.77 181.19 1267.71 183.989L1263.12 188.311V188.652H1278.67V195ZM1307.04 177.153C1307.04 183.387 1306.01 188.001 1303.96 190.996C1301.93 193.991 1298.79 195.488 1294.54 195.488C1290.42 195.488 1287.31 193.942 1285.21 190.85C1283.13 187.757 1282.09 183.192 1282.09 177.153C1282.09 170.854 1283.11 166.216 1285.14 163.237C1287.18 160.243 1290.31 158.745 1294.54 158.745C1298.66 158.745 1301.77 160.308 1303.87 163.433C1305.98 166.558 1307.04 171.131 1307.04 177.153ZM1289.58 177.153C1289.58 181.532 1289.96 184.673 1290.71 186.577C1291.47 188.465 1292.75 189.409 1294.54 189.409C1296.3 189.409 1297.57 188.449 1298.35 186.528C1299.13 184.608 1299.52 181.483 1299.52 177.153C1299.52 172.775 1299.12 169.634 1298.32 167.729C1297.54 165.809 1296.28 164.849 1294.54 164.849C1292.77 164.849 1291.5 165.809 1290.73 167.729C1289.97 169.634 1289.58 172.775 1289.58 177.153Z" fill="#212121"/>
<path d="M1225.85 218.127H1227.31C1228.29 218.127 1229 217.945 1229.44 217.582C1229.88 217.219 1230.1 216.68 1230.1 215.965C1230.1 215.238 1229.86 214.717 1229.38 214.4C1228.91 214.084 1228.2 213.926 1227.24 213.926H1225.85V218.127ZM1225.85 219.867V225H1223.75V212.15H1227.38C1229.04 212.15 1230.27 212.461 1231.06 213.082C1231.86 213.703 1232.26 214.641 1232.26 215.895C1232.26 217.494 1231.43 218.634 1229.76 219.313L1233.39 225H1231L1227.93 219.867H1225.85ZM1239.29 225.176C1237.78 225.176 1236.59 224.736 1235.74 223.857C1234.89 222.973 1234.46 221.757 1234.46 220.21C1234.46 218.622 1234.86 217.374 1235.65 216.466C1236.44 215.558 1237.53 215.104 1238.91 215.104C1240.2 215.104 1241.21 215.493 1241.95 216.272C1242.7 217.052 1243.07 218.124 1243.07 219.489V220.605H1236.59C1236.62 221.549 1236.88 222.275 1237.36 222.785C1237.84 223.289 1238.51 223.541 1239.39 223.541C1239.96 223.541 1240.49 223.488 1240.99 223.383C1241.48 223.271 1242.02 223.09 1242.59 222.838V224.517C1242.08 224.757 1241.57 224.927 1241.06 225.026C1240.54 225.126 1239.95 225.176 1239.29 225.176ZM1238.91 216.668C1238.26 216.668 1237.73 216.876 1237.33 217.292C1236.94 217.708 1236.7 218.314 1236.63 219.111H1241.04C1241.03 218.309 1240.83 217.702 1240.46 217.292C1240.08 216.876 1239.57 216.668 1238.91 216.668ZM1249.34 225.176C1247.87 225.176 1246.75 224.748 1245.98 223.893C1245.22 223.031 1244.84 221.798 1244.84 220.192C1244.84 218.558 1245.23 217.301 1246.03 216.422C1246.83 215.543 1247.99 215.104 1249.5 215.104C1250.53 215.104 1251.45 215.294 1252.27 215.675L1251.65 217.336C1250.77 216.996 1250.05 216.826 1249.49 216.826C1247.8 216.826 1246.96 217.942 1246.96 220.175C1246.96 221.265 1247.17 222.085 1247.59 222.636C1248.01 223.181 1248.62 223.453 1249.43 223.453C1250.35 223.453 1251.22 223.225 1252.04 222.768V224.569C1251.67 224.786 1251.28 224.941 1250.86 225.035C1250.44 225.129 1249.93 225.176 1249.34 225.176ZM1262.95 220.122C1262.95 221.71 1262.54 222.949 1261.73 223.84C1260.91 224.73 1259.78 225.176 1258.33 225.176C1257.42 225.176 1256.62 224.971 1255.92 224.561C1255.22 224.15 1254.69 223.562 1254.31 222.794C1253.94 222.026 1253.75 221.136 1253.75 220.122C1253.75 218.546 1254.15 217.315 1254.96 216.431C1255.77 215.546 1256.91 215.104 1258.38 215.104C1259.79 215.104 1260.9 215.558 1261.72 216.466C1262.54 217.368 1262.95 218.587 1262.95 220.122ZM1255.88 220.122C1255.88 222.366 1256.7 223.488 1258.36 223.488C1260 223.488 1260.82 222.366 1260.82 220.122C1260.82 217.901 1260 216.791 1258.34 216.791C1257.48 216.791 1256.85 217.078 1256.46 217.652C1256.07 218.227 1255.88 219.05 1255.88 220.122ZM1273.52 225H1271.45V219.006C1271.45 218.262 1271.31 217.708 1271.03 217.345C1270.75 216.976 1270.31 216.791 1269.71 216.791C1268.91 216.791 1268.33 217.052 1267.95 217.573C1267.58 218.089 1267.4 218.95 1267.4 220.157V225H1265.33V215.279H1266.95L1267.24 216.554H1267.34C1267.61 216.091 1268 215.733 1268.51 215.481C1269.03 215.229 1269.59 215.104 1270.21 215.104C1271.7 215.104 1272.69 215.613 1273.18 216.633H1273.32C1273.61 216.152 1274.01 215.777 1274.53 215.508C1275.06 215.238 1275.65 215.104 1276.33 215.104C1277.49 215.104 1278.33 215.396 1278.86 215.982C1279.39 216.568 1279.66 217.462 1279.66 218.663V225H1277.59V219.006C1277.59 218.262 1277.45 217.708 1277.16 217.345C1276.88 216.976 1276.44 216.791 1275.84 216.791C1275.04 216.791 1274.45 217.043 1274.08 217.547C1273.71 218.045 1273.52 218.812 1273.52 219.85V225ZM1286.79 225.176C1285.27 225.176 1284.09 224.736 1283.24 223.857C1282.39 222.973 1281.96 221.757 1281.96 220.21C1281.96 218.622 1282.36 217.374 1283.15 216.466C1283.94 215.558 1285.03 215.104 1286.41 215.104C1287.69 215.104 1288.71 215.493 1289.45 216.272C1290.19 217.052 1290.57 218.124 1290.57 219.489V220.605H1284.09C1284.12 221.549 1284.37 222.275 1284.85 222.785C1285.33 223.289 1286.01 223.541 1286.88 223.541C1287.46 223.541 1287.99 223.488 1288.48 223.383C1288.98 223.271 1289.51 223.09 1290.08 222.838V224.517C1289.58 224.757 1289.07 224.927 1288.55 225.026C1288.04 225.126 1287.45 225.176 1286.79 225.176ZM1286.41 216.668C1285.75 216.668 1285.22 216.876 1284.83 217.292C1284.43 217.708 1284.2 218.314 1284.12 219.111H1288.54C1288.52 218.309 1288.33 217.702 1287.96 217.292C1287.58 216.876 1287.06 216.668 1286.41 216.668ZM1301.46 225H1299.39V219.023C1299.39 218.273 1299.24 217.714 1298.93 217.345C1298.63 216.976 1298.16 216.791 1297.5 216.791C1296.63 216.791 1295.99 217.049 1295.58 217.564C1295.18 218.08 1294.98 218.944 1294.98 220.157V225H1292.91V215.279H1294.53L1294.82 216.554H1294.92C1295.22 216.091 1295.63 215.733 1296.17 215.481C1296.71 215.229 1297.31 215.104 1297.97 215.104C1300.3 215.104 1301.46 216.29 1301.46 218.663V225ZM1307.96 223.506C1308.46 223.506 1308.97 223.427 1309.47 223.269V224.824C1309.24 224.924 1308.95 225.006 1308.58 225.07C1308.23 225.141 1307.85 225.176 1307.47 225.176C1305.51 225.176 1304.53 224.145 1304.53 222.082V216.844H1303.2V215.93L1304.63 215.174L1305.33 213.117H1306.61V215.279H1309.37V216.844H1306.61V222.047C1306.61 222.545 1306.73 222.914 1306.97 223.154C1307.23 223.389 1307.55 223.506 1307.96 223.506Z" fill="#646464"/>
<defs>
<filter id="filter0_d_0_61" x="0" y="0" width="217" height="214" filterUnits="userSpaceOnUse" color-interpolation-filters="sRGB">
<feFlood flood-opacity="0" result="BackgroundImageFix"/>
<feColorMatrix in="SourceAlpha" type="matrix" values="0 0 0 0 0 0 0 0 0 0 0 0 0 0 0 0 0 0 127 0" result="hardAlpha"/>
<feOffset dy="13"/>
<feGaussianBlur stdDeviation="8"/>
<feColorMatrix type="matrix" values="0 0 0 0 0 0 0 0 0 0 0 0 0 0 0 0 0 0 0.1 0"/>
<feBlend mode="normal" in2="BackgroundImageFix" result="effect1_dropShadow_0_61"/>
<feBlend mode="normal" in="SourceGraphic" in2="effect1_dropShadow_0_61" result="shape"/>
</filter>
<filter id="filter1_d_0_61" x="386" y="96" width="217" height="214" filterUnits="userSpaceOnUse" color-interpolation-filters="sRGB">
<feFlood flood-opacity="0" result="BackgroundImageFix"/>
<feColorMatrix in="SourceAlpha" type="matrix" values="0 0 0 0 0 0 0 0 0 0 0 0 0 0 0 0 0 0 127 0" result="hardAlpha"/>
<feOffset dy="13"/>
<feGaussianBlur stdDeviation="8"/>
<feColorMatrix type="matrix" values="0 0 0 0 0 0 0 0 0 0 0 0 0 0 0 0 0 0 0.1 0"/>
<feBlend mode="normal" in2="BackgroundImageFix" result="effect1_dropShadow_0_61"/>
<feBlend mode="normal" in="SourceGraphic" in2="effect1_dropShadow_0_61" result="shape"/>
</filter>
<filter id="filter2_d_0_61" x="772" y="0" width="217" height="214" filterUnits="userSpaceOnUse" color-interpolation-filters="sRGB">
<feFlood flood-opacity="0" result="BackgroundImageFix"/>
<feColorMatrix in="SourceAlpha" type="matrix" values="0 0 0 0 0 0 0 0 0 0 0 0 0 0 0 0 0 0 127 0" result="hardAlpha"/>
<feOffset dy="13"/>
<feGaussianBlur stdDeviation="8"/>
<feColorMatrix type="matrix" values="0 0 0 0 0 0 0 0 0 0 0 0 0 0 0 0 0 0 0.1 0"/>
<feBlend mode="normal" in2="BackgroundImageFix" result="effect1_dropShadow_0_61"/>
<feBlend mode="normal" in="SourceGraphic" in2="effect1_dropShadow_0_61" result="shape"/>
</filter>
<filter id="filter3_d_0_61" x="1158" y="96" width="217" height="214" filterUnits="userSpaceOnUse" color-interpolation-filters="sRGB">
<feFlood flood-opacity="0" result="BackgroundImageFix"/>
<feColorMatrix in="SourceAlpha" type="matrix" values="0 0 0 0 0 0 0 0 0 0 0 0 0 0 0 0 0 0 127 0" result="hardAlpha"/>
<feOffset dy="13"/>
<feGaussianBlur stdDeviation="8"/>
<feColorMatrix type="matrix" values="0 0 0 0 0 0 0 0 0 0 0 0 0 0 0 0 0 0 0.1 0"/>
<feBlend mode="normal" in2="BackgroundImageFix" result="effect1_dropShadow_0_61"/>
<feBlend mode="normal" in="SourceGraphic" in2="effect1_dropShadow_0_61" result="shape"/>
</filter>
</defs>
</svg>
